<svg width="200" height="227" viewBox="0 0 200 227" class="css-1j8o68f">
<defs id="SvgjsDefs1599"></defs>
<g id="SvgjsG1600" featurekey="rootContainer" transform="matrix(1,0,0,1,0,19)" fill="#eeeeee">
<rect y="0" height="1" width="1" opacity="0"></rect>
<rect y="203" width="200" height="5"></rect></g>
<g id="SvgjsG1601" featurekey="symbolFeature-0" transform="matrix(0.7997244596481323,0,0,0.7997244596481323,60.37920336553976,14.026329294649468)" fill="#eeeeee"><path xmlns="http://www.w3.org/2000/svg" style="baseline-shift:baseline;block-progression:tb;color:;direction:ltr;text-indent:0;enable-background:accumulate;text-transform:none;" fill="#eeeeee" d="M27.5,4.9688c-7.132,0-12.969,5.9302-12.969,13.062,0,5.736,3.777,10.611,8.969,12.313v39.281c-5.192,1.716-8.969,6.67-8.969,12.406,0,7.133,5.837,12.969,12.969,12.969s13-5.836,13-12.969c0-5.736-3.808-10.69-9-12.406v-0.625c0-5.929,1.815-8.24,5.156-10.344,3.341-2.103,8.602-3.393,14.282-4.781,5.679-1.388,11.839-2.905,16.937-6.719,4.632-3.465,7.961-9.08,8.531-16.781,5.24-1.673,9.094-6.573,9.094-12.344,0-7.132-5.868-13.062-13-13.062s-12.969,5.9302-12.969,13.062c0,5.701,3.732,10.551,8.875,12.281-0.422,5.483-2.394,8.262-5.344,10.469-3.339,2.499-8.429,3.982-14,5.344-5.57,1.362-11.559,2.572-16.656,5.781-0.306,0.193-0.61,0.382-0.906,0.594v-22.156c5.192-1.702,9-6.577,9-12.313,0-7.132-5.868-13.062-13-13.062zm0,8.0312c2.809,0,5.031,2.222,5.031,5.031s-2.222,4.938-5.031,4.938-5-2.129-5-4.938,2.191-5.031,5-5.031zm45,0c2.809,0,5.031,2.222,5.031,5.031s-2.222,4.938-5.031,4.938-5-2.129-5-4.938,2.191-5.031,5-5.031zm-45,64c2.809,0,5.031,2.222,5.031,5.031s-2.222,4.938-5.031,4.938-5-2.129-5-4.938,2.191-5.031,5-5.031z"></path></g><g id="SvgjsG1602" featurekey="nameFeature-0" transform="matrix(1.4023277759552002,0,0,1.4023277759552002,-4.487447234304563,93.2281612475787)" fill="#eeeeee"><path d="M3.2 12 l4.2 0 l0 25.32 l-1.44 0 l0 -23.88 l-1.32 0 l0 25.12 l4.04 0 l0 -26.56 l1.44 0 l0 28 l-6.92 0 l0 -28 z M24.645 11.96 l11.6 21.8 l4.84 -8.96 l2.32 15.2 l1.44 0 l-3 -19.68 l-5.6 10.36 l-9.96 -18.72 l-1.64 0 z M37.405 22.72 l-1.88 3.48 l0.84 1.52 l2.64 -5 l3.52 -6.56 l0.12 -0.28 l1.32 -2.44 l0.96 0 l0.12 0.96 l3 19.52 l0.68 4.6 l-1.32 0 l-3.04 -19.8 l-0.36 -2.4 l-1.12 2.12 l3.2 20.96 l-0.04 0 l0.12 0.6 l4.24 0 l-4.24 -28.04 l-3.08 0 z M34.965 34.12 l-11.48 -21.64 l-0.24 -0.4 l-4.24 27.92 l7 0 l1.28 -8.28 l-0.84 -1.56 l-0.32 -0.6 l-1.36 8.96 l-4.08 0 l3.36 -21.92 l12.24 23.04 l4.36 -8.28 l-0.32 -2.12 l-0.04 -0.28 l-4 7.6 z M25.485 25.240000000000002 l7.84 14.76 l1.64 0 l-10.24 -19.24 l-2.6 16.72 l1.44 0 z M62.41 37.52 l1.76 0 l1.4 -3.36 l10.44 0.04 l2.56 5.8 l7.36 -0.04 l-12.6 -27.96 l-2.56 0 l-12.52 27.96 l7.8 0 l1.36 -3.2 l7.96 0 l-0.6 -1.36 l-8.24 0 l-1.28 3.16 l-4.76 0 l11.08 -25.2 l0.96 0 l11.12 25.2 l-4.24 0 l-2.56 -5.72 l-12.4 0 z M67.17 30.48 l4.88 -11.64 l8.2 18.64 l1.64 0 l-9.84 -21.92 l-7.2 16.16 l11.6 0 l-4.4 -9.72 l-3.04 7.32 l1.56 0 l1.48 -3.64 l2.2 4.8 l-7.08 0 z M108.33500000000001 40 c-2.48 0 -4.8 -0.64 -6.92 -1.92 c-4.32 -2.52 -7.04 -7.28 -7.04 -12.04 c0 -2.48 0.64 -4.84 1.92 -7.04 c2.56 -4.44 6.96 -6.96 12.04 -6.96 c3.48 0 6.84 1.32 9.4 3.68 c0.08 0.04 0.2 0.12 0.32 0.24 l0.28 0.32 l-1 1.04 l-0.56 -0.56 c-2.28 -2.12 -5.28 -3.28 -8.44 -3.28 c-2.24 0 -4.32 0.56 -6.24 1.68 c-3.88 2.24 -6.28 6.4 -6.28 10.88 c0 2.24 0.56 4.32 1.68 6.24 c2.24 3.88 6.36 6.28 10.84 6.28 c2.72 0 4.8 -0.76 8.2 -2.96 l0 -9.2 l-8.76 0 l0 -1.44 l10.16 0 l0 11.4 l-0.28 0.24 c-3.56 2.44 -6.12 3.4 -9.32 3.4 z M108.33500000000001 37.28 c-2 0 -3.88 -0.52 -5.6 -1.52 c-3.52 -2.04 -5.68 -5.72 -5.68 -9.72 c0 -2.04 0.52 -3.96 1.52 -5.72 c2.04 -3.48 5.64 -5.56 9.76 -5.56 c2.28 0 4.48 0.72 6.6 2.12 l1.04 0.8 l0.52 0.52 l-2.88 3.12 l-1.28 -1 c-1.16 -0.84 -2.52 -1.28 -4 -1.28 c-1.2 0 -2.36 0.32 -3.44 0.92 c-2.2 1.28 -3.52 3.52 -3.52 6.08 c0 1.2 0.32 2.36 0.96 3.44 c1.24 2.2 3.48 3.52 6 3.52 c1 0 1.92 -0.2 2.76 -0.64 l0 -0.64 l-3.32 0 l0 -4.08 l7.48 0 l0 7.12 l-0.92 0.72 c-1.8 1.24 -3.64 1.8 -6 1.8 z M108.33500000000001 16.2 c-1.76 0 -3.4 0.44 -4.92 1.32 c-3.04 1.76 -4.92 5 -4.92 8.52 c0 1.76 0.44 3.4 1.32 4.88 c1.76 3.04 5 4.92 8.52 4.92 c1.96 0 3.72 -0.52 5.2 -1.52 l0.28 -0.24 l0 -5 l-4.6 0 l0 1.2 l3.32 0 l0 3 l-0.4 0.2 c-1.32 0.64 -2.56 0.96 -3.8 0.96 c-1.44 0 -2.84 -0.4 -4.16 -1.16 c-2.68 -1.56 -4.24 -4.16 -4.24 -7.24 c0 -1.52 0.36 -2.92 1.12 -4.24 c1.48 -2.56 4.2 -4.16 7.28 -4.16 c1.72 0 3.36 0.52 4.84 1.52 l0.28 0.2 l0.96 -1.04 l-0.32 -0.24 c-1.72 -1.24 -3.64 -1.88 -5.76 -1.88 z M127.62000000000002 12.079999999999998 l1.44 0 l0 26.48 l15.32 0 l0 -4 l-11.28 0 l0 -3.84 l1.44 0 l0 2.4 l11.28 0 l0 6.88 l-18.2 0 l0 -27.92 z M130.34000000000003 12.079999999999998 l15.28 0 l0 6.84 l-9.6 0 l0 -1.44 l8.16 0 l0 -3.96 l-12.4 0 l0 11.56 l9.32 0 l0 1.44 l-10.76 0 l0 -14.44 z M130.34000000000003 27.8 l12.16 0 l0 -4 l-9.4 0 l0 -9.08 l9.68 0 l0 1.44 l-8.24 0 l0 6.2 l9.4 0 l0 6.88 l-12.16 0 l0 6.64 l11.2 0 l0 1.44 l-12.64 0 l0 -9.52 z"></path></g><g id="SvgjsG1603" featurekey="nameFeature-1" transform="matrix(1.1416503190994263,0,0,1.1416503190994263,0,145.3001989212715)" fill="#eeeeee"><path d="M5.12 33.4 c1.96 0.88 3.68 1.32 5.12 1.32 c0.72 0 1.16 -0.04 1.36 -0.16 c0.92 -0.24 1.56 -0.76 1.96 -1.56 l0.04 -0.08 c0.2 -0.36 0.28 -0.8 0.28 -1.36 c0 -0.28 -0.08 -0.6 -0.24 -1 l-0.08 -0.16 c-0.52 -1.08 -1.68 -1.8 -3.8 -2.48 l-0.4 -0.12 l-0.12 -0.04 c-3.24 -0.96 -5.32 -2.48 -6.32 -4.6 c-0.4 -0.8 -0.6 -1.68 -0.6 -2.64 c0 -1 0.2 -1.96 0.6 -2.96 l0.08 -0.16 c0.92 -1.84 2.4 -3.04 4.36 -3.64 c1.4 -0.2 2.2 -0.32 2.4 -0.32 c2.72 0 5.88 1.12 9.44 3.32 l0.76 -1.24 c-3.88 -2.36 -7.24 -3.52 -10.16 -3.52 c-1.16 0 -2.12 0.12 -2.8 0.4 c-2.36 0.64 -4.12 2.08 -5.28 4.36 l-0.12 0.28 c-0.48 1.16 -0.72 2.32 -0.72 3.48 c0 1.24 0.24 2.32 0.72 3.28 c1.24 2.48 3.64 4.24 7.24 5.32 l0.48 0.16 c1.64 0.52 2.6 1.08 2.96 1.72 l0.04 0.08 c0.08 0.12 0.12 0.28 0.12 0.48 c0 0.36 -0.04 0.6 -0.16 0.8 c-0.28 0.64 -0.96 0.96 -2.04 0.96 c-1.72 0 -4.2 -0.88 -6.12 -2.12 l-0.6 -0.36 l-3.52 5.68 l0.6 0.36 c2.84 1.92 6.6 3.12 9.64 3.12 c1 0 1.92 -0.12 2.76 -0.36 c2.36 -0.68 4.12 -2.16 5.28 -4.4 l0.16 -0.28 c0.48 -1.24 0.72 -2.4 0.72 -3.48 c0 -0.96 -0.32 -2.16 -0.92 -3.64 c-1.08 -2.16 -3.36 -3.8 -6.92 -4.92 l-0.56 -0.16 c-1.12 -0.36 -1.88 -0.72 -2.24 -1 c-0.48 -0.4 -0.76 -0.68 -0.88 -0.84 l-0.08 -0.44 c0 -0.4 0.08 -0.76 0.28 -1.04 c0.32 -0.6 0.64 -0.76 1.92 -0.76 c1.72 0 4.2 0.88 6.12 2.12 l0.6 0.36 l2.16 -3.44 l-0.64 -0.36 c-2.44 -1.6 -5.76 -2.72 -8.2 -2.72 c-1.08 0 -1.76 0.08 -2.12 0.28 c-1.64 0.48 -2.88 1.52 -3.68 3.08 c-0.36 0.68 -0.52 1.48 -0.52 2.48 c0 0.76 0.16 1.48 0.48 2.16 c0.84 1.8 2.72 3.12 5.64 4 l0.52 0.16 l1.08 0.4 c0.6 0.24 1.24 0.56 1.96 0.96 c1.28 0.76 1.92 1.84 1.92 3.28 c0 0.8 -0.2 1.56 -0.56 2.24 c-0.84 1.48 -2.28 2.24 -4.28 2.24 c-1.36 0 -3.28 -0.52 -5.76 -1.52 l-0.68 1.16 l-0.04 0.08 c2.28 1.16 4.44 1.72 6.52 1.72 c1.16 0 2.24 -0.24 3.2 -0.72 c1.88 -0.92 3.04 -2.84 3.04 -5.24 c0 -3.8 -2.92 -4.92 -6 -6 l-0.52 -0.16 c-2.52 -0.76 -4.08 -1.8 -4.72 -3.2 c-0.24 -0.48 -0.36 -1 -0.36 -1.6 c0 -0.76 0.12 -1.36 0.4 -1.88 c0.64 -1.16 1.56 -1.92 2.76 -2.28 l1.6 -0.2 c2.12 0 4.44 0.72 6.96 2.12 l-0.64 1 c-2.6 -1.28 -4.68 -1.92 -6.2 -1.92 c-0.76 0 -1.2 0.04 -1.4 0.16 c-0.88 0.24 -1.52 0.76 -1.96 1.6 l-0.04 0.08 c-0.2 0.36 -0.28 0.84 -0.28 1.44 c0 0.44 0.08 0.76 0.2 0.96 c0.52 1.08 1.88 1.96 4.04 2.6 l0.52 0.16 l1 0.32 c0.12 0.04 0.76 0.32 1.92 0.88 c1.56 0.88 2.68 2 3.32 3.32 c0.4 0.8 0.6 1.68 0.6 2.64 c0 1.16 -0.2 2.16 -0.64 3 l-0.08 0.16 c-0.92 1.84 -2.4 3.04 -4.36 3.64 c-1.4 0.2 -2.2 0.32 -2.4 0.32 c-2.04 0 -4.68 -0.76 -7.12 -1.92 l-1.12 -0.6 l2 -3.24 z M28.485 12.079999999999998 l1.44 0 l0 26.48 l15.32 0 l0 -4 l-11.28 0 l0 -3.84 l1.44 0 l0 2.4 l11.28 0 l0 6.88 l-18.2 0 l0 -27.92 z M31.205 12.079999999999998 l15.28 0 l0 6.84 l-9.6 0 l0 -1.44 l8.16 0 l0 -3.96 l-12.4 0 l0 11.56 l9.32 0 l0 1.44 l-10.76 0 l0 -14.44 z M31.205 27.8 l12.16 0 l0 -4 l-9.4 0 l0 -9.08 l9.68 0 l0 1.44 l-8.24 0 l0 6.2 l9.4 0 l0 6.88 l-12.16 0 l0 6.64 l11.2 0 l0 1.44 l-12.64 0 l0 -9.52 z M59.00999999999999 37.52 l1.76 0 l1.4 -3.36 l10.44 0.04 l2.56 5.8 l7.36 -0.04 l-12.6 -27.96 l-2.56 0 l-12.52 27.96 l7.8 0 l1.36 -3.2 l7.96 0 l-0.6 -1.36 l-8.24 0 l-1.28 3.16 l-4.76 0 l11.08 -25.2 l0.96 0 l11.12 25.2 l-4.24 0 l-2.56 -5.72 l-12.4 0 z M63.769999999999996 30.48 l4.88 -11.64 l8.2 18.64 l1.64 0 l-9.84 -21.92 l-7.2 16.16 l11.6 0 l-4.4 -9.72 l-3.04 7.32 l1.56 0 l1.48 -3.64 l2.2 4.8 l-7.08 0 z M110.09500000000001 38.56 l-4.6 0 l-5.52 -10.28 l-3.72 0.04 l0 10.24 l-4.04 0 l0 -26.56 l-1.44 0 l0 28 l6.96 0 l0 -10.28 l1.4 0 l5.48 10.28 l7.88 0 l-5.52 -10.32 l-1.32 0.52 z M100.57500000000002 13.440000000000001 c5.8 0 9.08 2.6 9.08 7.36 c0 4.32 -2.6 6.96 -7.12 7.44 l-1.08 0.12 l5 9.24 l1.64 0 l-4.36 -8.12 c4.8 -0.84 7.36 -3.76 7.36 -8.68 c0 -1.64 -0.36 -3.12 -1.04 -4.44 c-1.6 -2.84 -4.88 -4.36 -9.48 -4.36 l-7.08 0 l0 25.56 l1.44 0 l0 -24.12 l5.64 0 z M100.25500000000001 27.04 c5.48 0 8.08 -1.88 8.08 -6.04 c0 -3.96 -2.72 -6.2 -7.08 -6.2 l-5.04 0 l0 4.2 l4.6 0 c2.12 0 3.2 0.6 3.2 1.8 c0 1.4 -1.32 2.08 -4 2.08 l-2.32 0 l0 -2.48 l-1.48 0 l0 3.92 l3.8 0 c3.56 0 5.44 -1.24 5.44 -3.52 c0 -0.72 -0.16 -1.28 -0.52 -1.72 c-0.68 -1 -2.04 -1.48 -4.12 -1.48 l-3.12 0 l0 -1.36 l3.56 0 c3.56 0 5.64 1.72 5.64 4.76 c0 3.16 -2.12 4.64 -6.64 4.64 l-4 0 l0 1.4 l4 0 z M140.86 30.880000000000003 c-2.52 1.64 -3.76 2.12 -5.48 2.12 c-1.2 0 -2.32 -0.32 -3.4 -0.96 c-2.12 -1.28 -3.56 -3.6 -3.56 -6 c0 -1.28 0.32 -2.48 0.96 -3.56 c1.24 -2.16 3.6 -3.44 6 -3.44 c1.52 0 2.88 0.44 4.04 1.28 c0.2 0.12 0.44 0.28 0.72 0.56 l0.6 0.44 l2.68 -3.16 l-0.44 -0.44 c-0.28 -0.28 -0.64 -0.52 -1.08 -0.8 c-1.88 -1.44 -4.08 -2.16 -6.52 -2.16 c-3 0 -5.76 1.16 -7.96 3.28 c-2.12 2.24 -3.32 5 -3.32 8 s1.2 5.84 3.32 7.96 s4.96 3.32 7.96 3.32 c2.16 0 4.16 -0.6 6.04 -1.8 l-0.8 -1.2 c-1.64 1.08 -3.36 1.6 -5.24 1.6 c-2.6 0 -5.08 -1.04 -6.96 -2.92 s-2.88 -4.36 -2.88 -6.96 s1 -5.04 2.88 -6.92 c1.88 -1.92 4.36 -2.92 6.96 -2.92 c1.96 0 3.84 0.6 5.72 1.84 l0.32 0.28 l-0.88 1 c-0.12 -0.04 -0.2 -0.08 -0.28 -0.16 c-1.48 -1 -3.12 -1.52 -4.88 -1.52 c-1.56 0 -2.96 0.36 -4.2 1.08 c-2.52 1.48 -4.2 4.4 -4.2 7.32 c0 1.4 0.4 2.8 1.16 4.12 c1.56 2.68 4.4 4.32 7.24 4.32 c1.88 0 3.4 -0.56 5.68 -2 l2.24 3.32 c-2.92 1.92 -5.2 2.72 -7.92 2.72 c-2.24 0 -4.32 -0.56 -6.24 -1.68 c-3.88 -2.24 -6.28 -6.32 -6.28 -10.8 c0 -2.24 0.56 -4.32 1.68 -6.28 c2.24 -3.84 6.36 -6.24 10.84 -6.24 c3.16 0 6.16 1.16 8.44 3.28 l0.24 0.2 l0.32 0.32 l1 -1.04 l-0.56 -0.56 c-2.56 -2.28 -5.92 -3.6 -9.44 -3.6 c-2.52 0 -4.84 0.6 -6.96 1.84 c-4.24 2.44 -7 7.12 -7 12.08 c0 2.44 0.64 4.76 1.92 6.92 c2.52 4.32 7.04 7.04 12.04 7.04 c3.16 0 5.8 -1 9.36 -3.44 l0.56 -0.36 l-3.8 -5.72 z M151.70499999999998 12 l6.96 0 l0 9.24 l-1.48 0 l0 -7.76 l-4.04 0 l0 25.04 l4.04 0 l0 -7.72 l1.48 0 l0 9.2 l-6.96 0 l0 -28 z M154.465 14.64 l1.44 0 l0 7.84 l12.2 0 l0 -10.48 l1.4 0 l0 11.88 l-15.04 0 l0 -9.24 z M173.785 13.48 l-1.36 0 l0 10.52 l-1.44 0 l0 -12 l4.2 0 l0 28 l-1.4 0 l0 -26.52 z M168.105 29.52 l-12.2 0 l0 8.04 l-1.48 0 l0 -9.52 l15.08 0 l0 10.48 l1.48 0 l0 -11.8 l-16.56 0 l0 -1.4 l18 0 l0 14.68 l-4.32 0 l0 -10.48 z"></path></g></svg>